<svg xmlns="http://www.w3.org/2000/svg" id="Слой_1" data-name="Слой 1" viewBox="0 0 115.57 115.57" width="100%" height="100%" preserveAspectRatio="xMidYMid">
  <defs>
    <style>
      .cls-1{fill:none;stroke:#141414;stroke-miterlimit:10;stroke-width:2px;}.cls-2{fill:#141414;}
    </style>
  </defs>
  <title>
    ikonka 4.2
  </title>
  <circle class="cls-1" cx="57.79" cy="57.79" r="56.79"/>
  <path class="cls-2" d="M90.15,87.12C93,91.58,94.32,94,94.32,96.41c0,4.88-3.62,7.24-8.5,7.24-2.15,0-3.54,0-7-1.82,0,0-2.27-2.08-7.59-1.87-5.37-.21-7.64,1.89-7.64,1.89-3.51,1.83-4.85,1.81-7,1.81-4.88,0-8.51-2.36-8.51-7.24,0-2.47,1.34-4.83,4.17-9.29,0,0,5.35-8.89,10-13.07,3.35-3,8.23-3,8.23-3h1.51s5.09,0,8.23,3C84.66,78.39,90.15,87.12,90.15,87.12Zm-30.88-22c5.09,0,9.23-6.44,9.23-14.39s-4.14-14.39-9.23-14.39S50,42.79,50,50.73,54.17,65.12,59.27,65.12ZM50.42,79.05c3.76-1.73,4.61-7.88,1.91-13.74s-7.94-9.2-11.7-7.46S36,65.74,38.72,71.59,46.66,80.79,50.42,79.05ZM80.73,65.12c5.1,0,9.24-6.44,9.24-14.39s-4.14-14.39-9.24-14.39S71.5,42.79,71.5,50.73,75.63,65.12,80.73,65.12Zm18.64-7.27c-3.76-1.74-9,1.6-11.7,7.46s-1.85,12,1.91,13.74,9-1.6,11.7-7.46S103.13,59.58,99.37,57.85Z" transform="translate(-12.21 -12.21)"/>
</svg>