<svg xmlns="http://www.w3.org/2000/svg" id="Слой_1" data-name="Слой 1" viewBox="0 0 115.57 115.57" width="100%" height="100%" preserveAspectRatio="xMidYMid">
  <defs>
    <style>
      .cls-1{fill:none;stroke:#141414;stroke-miterlimit:10;stroke-width:2px;}.cls-2{fill:#141414;}
    </style>
  </defs>
  <title>
    ikonka 2.2
  </title>
  <circle class="cls-1" cx="57.79" cy="57.79" r="56.79"/>
  <path class="cls-2" d="M38.14,72.57h3.09S41.6,71,42.07,69s4.13-3.62,8.19-3.62H90.69c4.06,0,7.58,1.62,7.86,3.62l.5,3.61h2.81a7.36,7.36,0,0,0,7.35-7.35V51.5a7.35,7.35,0,0,0-5.43-7.07,8.66,8.66,0,0,1,.28,2.17v2.94a8.83,8.83,0,0,1-8.82,8.82H44.76a8.83,8.83,0,0,1-8.82-8.82V46.6a8.66,8.66,0,0,1,.28-2.17,7.35,7.35,0,0,0-5.43,7.07V65.22A7.35,7.35,0,0,0,38.14,72.57Z" transform="translate(-12.21 -12.21)"/>
  <path class="cls-2" d="M44.76,55.42H95.24a5.89,5.89,0,0,0,5.88-5.88V46.6a5.76,5.76,0,0,0-.56-2.45H39.43a5.75,5.75,0,0,0-.55,2.45v2.94A5.89,5.89,0,0,0,44.76,55.42Zm-2.92-8.67h55.5a.74.74,0,1,1,0,1.47H41.84a.74.74,0,0,1,0-1.47Zm0,4.6h55.5a.74.74,0,1,1,0,1.47H41.84a.74.74,0,0,1,0-1.47Z" transform="translate(-12.21 -12.21)"/>
  <path class="cls-2" d="M96.26,69.88c-.21-1.49-3.68-2.7-7.74-2.7H52c-4.06,0-7.57,1.21-7.84,2.7l-.49,2.69h53Z" transform="translate(-12.21 -12.21)"/>
  <path class="cls-2" d="M48.6,95.49a1.47,1.47,0,0,0,1,.36,1.45,1.45,0,0,0,1.11-.51c.23-.26,5.53-6.49,1.51-11.55C50,81,51.6,79.35,52,79.05a1.47,1.47,0,0,0-1.85-2.29c-1.54,1.22-3.57,4.65-.23,8.86,2.5,3.15-1.39,7.75-1.43,7.8A1.47,1.47,0,0,0,48.6,95.49Z" transform="translate(-12.21 -12.21)"/>
  <path class="cls-2" d="M61.46,95.49a1.47,1.47,0,0,0,2.08-.15c.22-.26,5.53-6.49,1.51-11.55-2.23-2.81-.59-4.44-.23-4.74A1.47,1.47,0,0,0,63,76.76c-1.54,1.22-3.57,4.65-.24,8.86,2.51,3.15-1.39,7.75-1.43,7.8A1.47,1.47,0,0,0,61.46,95.49Z" transform="translate(-12.21 -12.21)"/>
  <path class="cls-2" d="M74.33,95.49a1.47,1.47,0,0,0,1,.36,1.45,1.45,0,0,0,1.11-.51c.23-.26,5.53-6.49,1.51-11.55-2.23-2.81-.58-4.44-.22-4.74a1.47,1.47,0,0,0-1.85-2.29c-1.54,1.22-3.57,4.65-.23,8.86,2.5,3.15-1.39,7.75-1.43,7.8A1.46,1.46,0,0,0,74.33,95.49Z" transform="translate(-12.21 -12.21)"/>
  <path class="cls-2" d="M87.19,95.49a1.47,1.47,0,0,0,2.08-.15c.22-.26,5.53-6.49,1.5-11.55-2.23-2.81-.58-4.44-.22-4.74a1.47,1.47,0,0,0-1.84-2.29c-1.54,1.22-3.58,4.65-.24,8.86,2.51,3.15-1.39,7.75-1.43,7.8A1.47,1.47,0,0,0,87.19,95.49Z" transform="translate(-12.21 -12.21)"/>
</svg>