<svg xmlns="http://www.w3.org/2000/svg" id="Слой_1" data-name="Слой 1" viewBox="0 0 115.57 115.57" width="100%" height="100%" preserveAspectRatio="xMidYMid">
  <defs>
    <style>
      .cls-1{fill:none;stroke:#141414;stroke-miterlimit:10;stroke-width:2px;}.cls-2{fill:#141414;}
    </style>
  </defs>
  <title>
    ikonka 5.2
  </title>
  <circle class="cls-1" cx="57.79" cy="57.79" r="56.79"/>
  <path class="cls-2" d="M87.17,64.52a2.8,2.8,0,0,0-.8.11l-3.07.84-3.18-7.75a6.94,6.94,0,0,0-5.94-4H44.4a6.92,6.92,0,0,0-5.94,4l-3.18,7.74-3-.83a2.8,2.8,0,0,0-.8-.11A2.48,2.48,0,0,0,29,67.15V69a3.23,3.23,0,0,0,3.22,3.23h.35L32,73.43a24.17,24.17,0,0,0-1.52,7.7v15.4a3.23,3.23,0,0,0,3.23,3.23h4.21a3.23,3.23,0,0,0,3.23-3.23V92.69H77.42v3.84a3.23,3.23,0,0,0,3.23,3.23h4.21a3.23,3.23,0,0,0,3.23-3.23V81.13a24.17,24.17,0,0,0-1.52-7.7l-.52-1.25h.39A3.23,3.23,0,0,0,89.67,69v-1.8A2.48,2.48,0,0,0,87.17,64.52ZM37.59,70.43,42.41,58.7A4.18,4.18,0,0,1,46,56.31H72.61a4.18,4.18,0,0,1,3.56,2.39L81,70.43a1.61,1.61,0,0,1-1.6,2.39H39.19A1.61,1.61,0,0,1,37.59,70.43ZM48.34,85.26a1.29,1.29,0,0,1-1.29,1.29H37.9a1.29,1.29,0,0,1-1.29-1.29V80.87a1.29,1.29,0,0,1,1.29-1.29h9.15a1.29,1.29,0,0,1,1.29,1.29Zm33.54,0a1.29,1.29,0,0,1-1.29,1.29H71.44a1.29,1.29,0,0,1-1.29-1.29V80.87a1.29,1.29,0,0,1,1.29-1.29h9.15a1.29,1.29,0,0,1,1.29,1.29Z" transform="translate(-12.21 -12.21)"/>
  <path class="cls-2" d="M107,40.24H91.73a4,4,0,0,0-4,4V59.56a4,4,0,0,0,4,4h6.14V97.91a1.51,1.51,0,0,0,3,0V63.6H107a4,4,0,0,0,4-4V44.28A4,4,0,0,0,107,40.24Zm-3.47,12.67a5.52,5.52,0,0,1-3.84,1.2H97.49a.48.48,0,0,0-.48.48v3.73a.74.74,0,0,1-.74.74H94.6a.74.74,0,0,1-.74-.74V45.52a.74.74,0,0,1,.74-.74h4.22c2.8,0,3.84.43,4.7,1.15a4.34,4.34,0,0,1,1.36,3.5A4.42,4.42,0,0,1,103.55,52.91Z" transform="translate(-12.21 -12.21)"/>
  <path class="cls-2" d="M101.16,47.88A3.69,3.69,0,0,0,99,47.41H97.49a.49.49,0,0,0-.48.48V51a.49.49,0,0,0,.48.48h.91c.34,0,.88,0,1.21,0a4.16,4.16,0,0,0,1.55-.41,2.3,2.3,0,0,0,0-3.1Z" transform="translate(-12.21 -12.21)"/>
</svg>