<svg xmlns="http://www.w3.org/2000/svg" id="Слой_1" data-name="Слой 1" viewBox="0 0 115.57 115.57" width="100%" height="100%" preserveAspectRatio="xMidYMid">
  <defs>
    <style>
      .cls-1{fill:none;stroke:#141414;stroke-miterlimit:10;stroke-width:2px;}.cls-2{fill:#141414;}
    </style>
  </defs>
  <title>
    ikonka 1.2
  </title>
  <circle class="cls-1" cx="57.79" cy="57.79" r="56.79"/>
  <path class="cls-2" d="M99.23,98.18c-3-7.81-6-15.66-9.74-23.14a4,4,0,0,0-5-2.07H82.87c2.49-.87,4.15-4.11,1.66-6.42a116.9,116.9,0,0,1-13-14.17,2.93,2.93,0,0,0-.64-.58,6.46,6.46,0,0,0-2.66-1.45C65,49.45,60.64,51.43,60,55c-1.12,6.57-2,13.18-2.6,19.82a6.09,6.09,0,0,0,0,.74c-.39,2.58,1,5.71,4.08,6,7.15.68,14.38.15,21.57.05,3.16,6.68,5.85,13.6,8.46,20.49C93.52,107.37,101.19,103.33,99.23,98.18ZM71,72.75q.39-3.87.92-7.73c2.24,2.46,4.57,4.82,7,7.08a3.86,3.86,0,0,0,1.33.84C77.21,72.91,74.12,72.86,71,72.75Z" transform="translate(-12.21 -12.21)"/>
  <circle class="cls-2" cx="56.56" cy="27.87" r="7.68"/>
  <path class="cls-2" d="M87.64,95.16a1.58,1.58,0,0,0-2.18.49A18.77,18.77,0,1,1,56.28,72.4a1.57,1.57,0,0,0-1.6-2.6L54,60.21a1.6,1.6,0,0,0-1-1.35L42.63,54.53a1.58,1.58,0,1,0-1.21,2.91l9.53,4,.79,11.53A21.91,21.91,0,1,0,88.13,97.32,1.57,1.57,0,0,0,87.64,95.16Z" transform="translate(-12.21 -12.21)"/>
</svg>