<svg xmlns="http://www.w3.org/2000/svg" id="Слой_1" data-name="Слой 1" viewBox="0 0 115.57 115.57" width="100%" height="100%" preserveAspectRatio="xMidYMid">
  <defs>
    <style>
      .cls-1{fill:none;stroke:#141414;stroke-miterlimit:10;stroke-width:2px;}.cls-2{fill:#141414;}
    </style>
  </defs>
  <title>
    ikonka 3.2
  </title>
  <circle class="cls-1" cx="57.79" cy="57.79" r="56.79"/>
  <polygon class="cls-2" points="70.62 74.32 73.75 74.32 73.75 68.74 78.73 68.74 78.73 66.19 73.75 66.19 73.75 63.01 79.08 63.01 79.08 60.44 70.62 60.44 70.62 74.32"/>
  <rect class="cls-2" x="80.94" y="64.25" width="3.13" height="10.08"/>
  <path class="cls-2" d="M94.74,72.09a1.55,1.55,0,0,0-1.66,1.57,1.54,1.54,0,0,0,1.62,1.57,1.57,1.57,0,1,0,0-3.14Z" transform="translate(-12.21 -12.21)"/>
  <path class="cls-2" d="M68.14,52.17c0-.62-.43-.94-1.14-.94a4.2,4.2,0,0,0-.69,0v1.88h.6C67.68,53.15,68.14,52.76,68.14,52.17Z" transform="translate(-12.21 -12.21)"/>
  <path class="cls-2" d="M104.35,60H91.06a21.5,21.5,0,0,0-42.12,0H35.65A12.9,12.9,0,0,0,22.77,72.84V84.36A12.9,12.9,0,0,0,35.65,97.24h68.7a12.89,12.89,0,0,0,12.88-12.88V72.84A12.89,12.89,0,0,0,104.35,60ZM46.65,86.53H43.26l-1.18-6c-.27-1.4-.49-2.7-.66-4.28h0c-.24,1.56-.47,2.88-.8,4.28l-1.32,6H35.82l-3.3-13.88h3.36l1,5.71c.31,1.66.6,3.46.83,4.86h0c.22-1.51.55-3.18.9-4.91l1.18-5.66h3.33l1.11,5.85c.31,1.63.54,3.11.75,4.66h0c.2-1.55.51-3.18.8-4.84L47,72.65h3.2Zm7.7,0H51.22V76.46h3.13Zm-1.59-11.3a1.57,1.57,0,1,1,1.69-1.57A1.55,1.55,0,0,1,52.76,75.23ZM76.21,50.12h4.2v1.27H77.74v1.42h2.51v1.25H77.74v1.62h2.81V57H76.21Zm-5.41,0H75v1.27H72.33v1.42h2.51v1.25H72.33v1.62h2.81V57H70.8Zm-7.19,1.27H61V53h2.45V54.2H61V57H59.45V50.12h4.16v1.27ZM66.31,57H64.78V50.21a13.48,13.48,0,0,1,2-.14,3.47,3.47,0,0,1,2.21.54,1.74,1.74,0,0,1,.64,1.44,1.82,1.82,0,0,1-1.21,1.67v0A1.67,1.67,0,0,1,69.38,55c.22.78.42,1.67.55,1.94H68.35a10.19,10.19,0,0,1-.47-1.59c-.19-.86-.48-1.09-1.12-1.1h-.45V57Zm45.77,27.41a7.74,7.74,0,0,1-7.73,7.73H73.74a16.05,16.05,0,0,1,0-27h30.61a7.74,7.74,0,0,1,7.73,7.73Z" transform="translate(-12.21 -12.21)"/>
</svg>
